<svg xmlns="http://www.w3.org/2000/svg" width="100%" height="auto" viewBox="0 0 1024 1024" version="1.1" preserveAspectRatio="xMidYMid meet" style="max-width: 100%; max-height: 70vh;">
	<path d="M 385 245 L 385 279 389.750 279.015 C 414.928 279.093, 441.967 300.009, 457.874 331.712 C 467.665 351.228, 470.489 362.885, 478.412 416.500 C 496.572 539.399, 519.059 685.622, 522.524 703.347 C 529.752 740.322, 545.001 770.206, 569.929 796.250 C 592.914 820.264, 611.947 831.623, 643.566 840.197 L 655.500 843.433 769.750 843.753 L 884 844.072 883.999 810.286 L 883.997 776.500 878.249 774.790 C 849.192 766.145, 819.310 725.962, 812.593 686.500 C 811.750 681.550, 807.462 653.650, 803.063 624.500 C 788.622 528.790, 763.105 365.756, 760.538 352.795 C 752.776 313.606, 734.672 279.351, 707.532 252.500 C 685.141 230.347, 659.089 216.828, 630.483 212.516 C 622.029 211.242, 602.465 211.011, 502.750 211.006 L 385 211 385 245 M 506 279.301 C 506 279.488, 508.437 283.344, 511.415 287.871 C 521.919 303.836, 529.097 319.821, 535.520 341.548 C 540.003 356.712, 541.044 362.311, 548.524 411.500 C 554.425 450.305, 571.108 559.175, 585.531 653 C 591.589 692.413, 595.063 707.151, 601.441 720.500 C 613.648 746.048, 635.268 766.575, 657.302 773.535 C 661.593 774.891, 665.511 776, 666.009 776 C 666.508 776, 664.094 771.837, 660.645 766.750 C 648.590 748.965, 640.526 731.668, 635.517 712.849 C 634.119 707.596, 628.942 676.569, 624.012 643.899 C 592.541 435.334, 582.314 369.554, 579.952 360.500 C 578.804 356.100, 575.996 347.795, 573.713 342.044 C 562.038 312.645, 542.383 291.730, 517.896 282.648 C 511.284 280.196, 506 278.709, 506 279.301 M 623.587 287.108 C 634.999 304.844, 644.918 329.672, 650.421 354.273 C 652.641 364.199, 664.794 441.695, 681.428 552 C 701.380 684.314, 703.203 695.339, 707.048 707 C 716.266 734.948, 736.540 759.403, 759.338 770.071 C 765.689 773.043, 776.024 776.309, 776.757 775.576 C 776.950 775.384, 774.445 771.238, 771.191 766.363 C 759.740 749.208, 749.667 727.318, 745.069 709.598 C 743.942 705.251, 740.737 686.576, 737.948 668.098 C 735.159 649.619, 727.525 599.625, 720.984 557 C 714.442 514.375, 705.922 458.800, 702.049 433.500 C 692.497 371.104, 692.277 369.811, 689.385 359.082 C 683.005 335.416, 672.850 316.729, 658.577 302.391 C 647.709 291.473, 632.727 282.495, 621.691 280.288 L 618.831 279.716 623.587 287.108 M 370.835 306.543 C 345.950 310.420, 323.043 322.857, 301.945 343.949 C 288.461 357.428, 278.028 372.311, 269.641 390.031 C 259.491 411.476, 260.121 408.354, 233.053 571.212 C 215.863 674.644, 207.303 723.759, 205.599 728.745 C 197.509 752.415, 180.232 770.105, 159.068 776.388 C 156.081 777.274, 151.469 778, 148.818 778 L 144 778 144 811.500 L 144 845 148.869 845 C 156.456 845, 169.808 842.353, 181.439 838.543 C 202.513 831.639, 219.233 820.850, 236.041 803.308 C 247.379 791.474, 255.054 780.308, 262.422 764.926 C 269.241 750.690, 272.193 741.645, 276.010 723.292 C 281.791 695.492, 289.203 680.826, 306 663.952 C 314.401 655.512, 318.122 652.567, 324.614 649.222 C 338.597 642.016, 338.429 642.031, 402.250 642.015 L 459 642 459 608.444 L 459 574.888 397.750 575.270 C 339.142 575.636, 336.118 575.746, 327.632 577.809 C 322.754 578.994, 315.129 581.536, 310.688 583.456 C 306.247 585.376, 302.467 586.801, 302.288 586.622 C 301.996 586.329, 306.109 558.659, 317.915 481.500 C 323.976 441.892, 325.314 436.445, 332.537 421.976 C 343.787 399.444, 363.021 381.296, 380.250 376.958 L 385 375.763 385 340.381 L 385 305 382.250 305.097 C 380.738 305.150, 375.601 305.801, 370.835 306.543" stroke="none" fill="black" fill-rule="evenodd"/>
</svg>